<?xml version="1.0" encoding="utf-8"?>
<!-- Generator: Adobe Illustrator 16.0.0, SVG Export Plug-In . SVG Version: 6.00 Build 0)  -->
<!DOCTYPE svg PUBLIC "-//W3C//DTD SVG 1.1//EN" "http://www.w3.org/Graphics/SVG/1.1/DTD/svg11.dtd">
<svg version="1.1" id="a6d09f17-7a71-4d3b-9de6-8b8ba964cb80"
	 xmlns="http://www.w3.org/2000/svg" xmlns:xlink="http://www.w3.org/1999/xlink" x="0px" y="0px" width="883.708px"
	 height="724.226px" viewBox="0 0 883.708 724.226" enable-background="new 0 0 883.708 724.226" xml:space="preserve">
<polygon fill="#FFB8B8" points="727.667,667.663 716.235,667.663 710.797,623.565 727.67,623.569 "/>
<path fill="#2F2E41" d="M708.067,664.395h22.049l0,0v13.883l0,0h-35.93l0,0l0,0C694.186,670.612,700.401,664.395,708.067,664.395
	L708.067,664.395z"/>
<polygon fill="#FFB8B8" points="789.288,667.663 777.854,667.663 772.418,623.565 789.292,623.569 "/>
<path fill="#2F2E41" d="M769.69,664.395h22.047l0,0v13.883l0,0h-35.93l0,0l0,0C755.807,670.612,762.022,664.395,769.69,664.395
	L769.69,664.395z"/>
<circle fill="#FFB8B8" cx="755.807" cy="329.627" r="24.561"/>
<path fill="#FFB8B8" d="M671.825,489.805c0.646-5.139,5.338-8.777,10.477-8.131c0.547,0.07,1.088,0.188,1.615,0.352l13.727-16.455
	l12.033,5.902l-19.711,22.965c-1.873,4.859-7.33,7.277-12.189,5.402C673.711,498.272,671.25,494.124,671.825,489.805
	L671.825,489.805z"/>
<path fill="#FFB8B8" d="M789.958,506.448c-2.209-4.686-0.203-10.273,4.48-12.482c0.498-0.236,1.018-0.426,1.551-0.57l2.756-21.25
	l13.322-1.475l-4.313,29.953c1.023,5.105-2.283,10.074-7.389,11.1C796.094,512.581,791.792,510.399,789.958,506.448L789.958,506.448
	z"/>
<path fill="#007BFF" d="M776.333,376.018L776.333,376.018c4.102-5.266,11.693-6.209,16.959-2.109
	c1.688,1.314,2.996,3.054,3.791,5.039l20.131,50.24c2.059,5.135,2.715,10.723,1.902,16.193l-6.559,44.158
	c-0.324,2.186-2.359,3.695-4.543,3.369c-0.199-0.029-0.396-0.072-0.588-0.133l-8.639-2.652c-1.846-0.566-3.023-2.371-2.799-4.289
	l0,0c3.049-25.998-0.98-52.336-11.664-76.232l-9.49-21.229C773.01,384.295,773.586,379.543,776.333,376.018z"/>
<path fill="#2F2E41" d="M761.788,354.187c14.469,0.313,26.451-11.163,26.764-25.633c0.313-14.469-11.164-26.452-25.633-26.765
	c-2.029-0.044-4.057,0.148-6.041,0.572c-5.402-3.28-11.682-5.486-17.977-4.925c-6.293,0.561-12.518,4.298-14.871,10.162
	c-2.354,5.864,0.176,13.594,6.027,15.978c3.752,1.527,7.988,0.787,11.992,0.17c4.004-0.615,8.371-1.018,11.857,1.049
	c3.484,2.065,5.051,7.605,1.93,10.188c-3.389,2.914-4.615,7.623-3.084,11.82C754.321,350.86,758.602,354.118,761.788,354.187z"/>
<path fill="#2F2E41" d="M792.26,488.834l4.355,165.34c0.059,2.207-1.684,4.045-3.893,4.104c-0.104,0.002-0.207,0.002-0.309-0.004
	l-14.354-0.732c-1.887-0.096-3.449-1.5-3.746-3.367l-17.07-107.389c-0.174-1.09-1.199-1.834-2.289-1.662
	c-0.811,0.129-1.459,0.74-1.639,1.539l-23.107,103.398c-0.482,2.154-2.619,3.512-4.775,3.031c-0.158-0.037-0.314-0.082-0.469-0.137
	l-14.244-0.869c-1.693-0.602-2.777-2.26-2.648-4.053l12.434-160.764L792.26,488.834z"/>
<path fill="#007BFF" d="M799.252,410.303c2.402-25.055-16.02-47.718-41.127-49.5c-10.818-0.769-27.613-1.043-33.148,13.136
	c-16.678,42.714,12.518,41.677,2.459,78.683c-10.059,37.008-18.943,39.129-5.143,41.801c13.803,2.672,75.867,18.447,73.318-7.6
	C794.045,470.811,796.854,435.295,799.252,410.303z"/>
<path fill="#007BFF" d="M727.93,369.594L727.93,369.594c6.223-2.408,13.221,0.684,15.631,6.907c0.771,1.995,1,4.159,0.662,6.271
	l-7.838,48.992c-1.342,8.377-4.883,16.248-10.266,22.807l-25.459,31.023c-1.402,1.709-3.922,1.957-5.631,0.555
	c-0.154-0.127-0.299-0.266-0.434-0.416l-6.049-6.715c-1.291-1.436-1.373-3.588-0.195-5.119l1.781-2.311
	c14.811-19.221,24.154-42.086,27.045-66.18l3.117-25.984C720.827,374.989,723.764,371.208,727.93,369.594z"/>
<path fill="#CCCCCC" d="M862.254,680.649h-258c-0.553,0-1-0.449-1-1c0-0.553,0.447-1,1-1h258c0.553,0,1,0.447,1,1
	C863.254,680.2,862.807,680.649,862.254,680.649z"/>
<g>
	<circle fill="#E6E6E6" cx="46.767" cy="296.23" r="12.728"/>
	<circle fill="#FFFFFF" cx="46.766" cy="296.229" r="6.364"/>
	<ellipse fill="#E6E6E6" cx="134.702" cy="258.602" rx="15.382" ry="31.386"/>
	<path fill="#3F3D56" d="M136.123,309.976c-6.161-36.965-0.062-73.794,0-74.162l1.198,0.204c-0.062,0.365-6.126,37.002,0,73.759
		L136.123,309.976z"/>
	
		<rect x="133.69" y="255.501" transform="matrix(-0.8818 0.4717 -0.4717 -0.8818 387.2154 415.1614)" fill="#3F3D56" width="15.775" height="1.215"/>
	
		<rect x="126.287" y="251.951" transform="matrix(-0.4718 0.8817 -0.8817 -0.4718 415.8657 270.5379)" fill="#3F3D56" width="1.216" height="15.775"/>
	<rect x="419.722" y="86.96" fill="#3F3D56" width="25.212" height="87.271"/>
	<polygon fill="#3F3D56" points="461.583,157.813 400.265,84.866 277.18,85.991 202.515,158.715 204.023,159.686 203.484,159.686 
		203.484,310.957 461.418,310.957 461.418,159.686 	"/>
	<polygon fill="#007BFF" points="400.329,85.021 323.725,174.832 323.725,310.957 461.418,310.957 461.418,157.747 	"/>
	<rect x="378.995" y="235.676" fill="#3F3D56" width="28.121" height="24.856"/>
	<rect x="378.995" y="192.654" fill="#3F3D56" width="28.121" height="24.462"/>
	<rect x="378.995" y="235.676" fill="#FFFFFF" width="28.121" height="24.856"/>
	<rect x="378.995" y="192.654" fill="#FFFFFF" width="28.121" height="24.462"/>
	<path fill="#E6E6E6" d="M304.627,306.522c0,0,0.604-12.633,12.962-11.165"/>
	<circle fill="#007BFF" cx="301.136" cy="288.315" r="6.186"/>
	<rect x="300.129" y="298.731" fill="#E6E6E6" width="1.747" height="12.221"/>
	<ellipse fill="#007BFF" cx="97.744" cy="210.198" rx="30.085" ry="61.388"/>
	<path fill="#3F3D56" d="M101.094,310.584c-12.034-72.202-0.122-144.14,0-144.858l1.198,0.204c-0.121,0.715-11.999,72.461,0,144.454
		L101.094,310.584z"/>
	
		<rect x="95.761" y="204.713" transform="matrix(-0.8818 0.4717 -0.4717 -0.8818 306.0742 333.925)" fill="#3F3D56" width="30.854" height="1.216"/>
	
		<rect x="81.866" y="197.188" transform="matrix(-0.4715 0.8819 -0.8819 -0.4715 308.8591 240.1214)" fill="#3F3D56" width="1.216" height="30.853"/>
	<ellipse fill="#007BFF" cx="169" cy="173.25" rx="41.17" ry="84.004"/>
	<path fill="#3F3D56" d="M173.806,310.584c-16.46-98.767-0.167-197.169,0-198.151l1.198,0.203c-0.167,0.981-16.426,99.191,0,197.749
		L173.806,310.584z"/>
	
		<rect x="166.288" y="165.969" transform="matrix(-0.8818 0.4716 -0.4716 -0.8818 431.2084 225.0801)" fill="#3F3D56" width="42.221" height="1.216"/>
	
		<rect x="147.497" y="155.447" transform="matrix(-0.4718 0.8817 -0.8817 -0.4718 373.6518 129.2714)" fill="#3F3D56" width="1.215" height="42.221"/>
	<rect x="39.091" y="309.956" fill="#3F3D56" width="444.297" height="1.057"/>
	<rect x="254.025" y="229.082" fill="#3F3D56" width="28.121" height="24.856"/>
	<rect x="254.025" y="186.06" fill="#3F3D56" width="28.121" height="24.46"/>
	<rect x="254.025" y="229.082" fill="#FFFFFF" width="28.121" height="24.856"/>
	<rect x="254.025" y="186.06" fill="#FFFFFF" width="28.121" height="24.46"/>
</g>
<g>
	<path fill="#E6E6E6" d="M669.495,459.082h-274c-9.109-0.01-16.49-7.393-16.5-16.5v-197c0.01-9.109,7.391-16.49,16.5-16.5h274
		c9.107,0.01,16.49,7.391,16.5,16.5v197C685.985,451.689,678.602,459.072,669.495,459.082z"/>
	<path fill="#FFFFFF" d="M400.559,445.927H664.43c4.418,0,8-3.58,8-8V250.234c0-4.418-3.582-8-8-8H400.559c-4.418,0-8,3.582-8,8
		v187.693C392.559,442.347,396.141,445.927,400.559,445.927z"/>
	<path fill="#E6E6E6" d="M632.977,300.554H464.426c-3.324,0-6.02,2.695-6.02,6.02s2.695,6.02,6.02,6.02l0,0h168.551
		c3.324,0,6.02-2.695,6.02-6.02S636.301,300.554,632.977,300.554z"/>
	<path fill="#E6E6E6" d="M464.426,337.599c-3.324,0-6.02,2.693-6.02,6.02c0,3.324,2.695,6.02,6.02,6.02l0,0h168.551
		c3.324,0,6.02-2.695,6.02-6.02c0-3.326-2.695-6.02-6.02-6.02H464.426z"/>
	<path fill="#E6E6E6" d="M464.426,374.642c-3.324,0-6.02,2.695-6.02,6.02s2.695,6.02,6.02,6.02l0,0h168.551
		c3.324,0,6.02-2.695,6.02-6.02s-2.695-6.02-6.02-6.02H464.426z"/>
	<circle fill="#007BFF" cx="432.475" cy="307.037" r="7.408"/>
	<circle fill="#E6E6E6" cx="432.475" cy="344.081" r="7.409"/>
	<circle fill="#E6E6E6" cx="432.475" cy="381.125" r="7.409"/>
	<path fill="#007BFF" d="M565.834,306.574L565.834,306.574c0,3.324-2.695,6.02-6.02,6.02l0,0h-95.172
		c-3.074,0.045-5.713-2.182-6.186-5.219c-0.436-3.303,1.889-6.332,5.189-6.768c0.258-0.035,0.518-0.053,0.779-0.053h95.389
		C563.139,300.554,565.834,303.25,565.834,306.574L565.834,306.574z"/>
</g>
<g>
	<path fill="#514E7F" d="M288.491,503.268c-0.184,1.473-1.117,2.74-2.142,3.814c-1.025,1.075-2.184,2.042-2.999,3.279
		c-1.004,1.535-1.456,3.439-2.761,4.735c-0.501,0.472-1.064,0.873-1.673,1.192c-0.683,0.402-1.404,0.735-2.154,0.991
		c-1.95,0.624-4.05,0.481-6.087,0.33c-0.661-0.005-1.316-0.132-1.932-0.371c-0.281-0.144-0.549-0.309-0.803-0.494
		c-0.511-0.314-0.94-0.744-1.255-1.255c-0.154-0.277-0.198-0.604-0.122-0.912c0.117-0.339,0.317-0.645,0.582-0.887
		c0.458-0.477,0.95-0.92,1.472-1.325c0.716-0.463,1.361-1.026,1.916-1.674c0.34-0.512,0.591-1.077,0.741-1.673
		c0.296-1.044,0.477-2.117,0.54-3.2c-0.002-0.72,0.072-1.438,0.222-2.142c0.31-1.104,1.129-2.092,1.037-3.233
		c-0.037-0.163-0.022-0.335,0.042-0.489c0.098-0.121,0.233-0.205,0.385-0.238c0.639-0.255,1.313-0.412,2-0.465
		c0.697-0.048,1.378,0.219,1.857,0.728c0.284,0.344,0.473,0.837,0.891,0.971c0.207,0.057,0.424,0.065,0.635,0.025
		c1.029-0.104,2.117-0.234,2.928-0.899c0.759-0.681,1.198-1.646,1.213-2.665c0-0.38-0.172-0.778,0.418-0.836
		c0.443-0.059,0.794,0.418,1.021,0.711c0.816,1.092,1.652,2.233,1.958,3.563c0.119-0.046,0.245-0.069,0.372-0.071
		c0.529-0.004,1.028,0.25,1.334,0.683C288.46,502,288.589,502.642,288.491,503.268z"/>
	<path fill="#464353" d="M288.491,503.268c-0.184,1.473-1.117,2.74-2.142,3.814c-1.025,1.075-2.184,2.042-2.999,3.279
		c-1.004,1.535-1.456,3.439-2.761,4.735c-0.501,0.472-1.064,0.873-1.673,1.192c-0.683,0.402-1.404,0.735-2.154,0.991
		c-1.95,0.624-4.05,0.481-6.087,0.33c-0.661-0.005-1.316-0.132-1.932-0.371c-0.281-0.144-0.549-0.309-0.803-0.494
		c-0.511-0.314-0.94-0.744-1.255-1.255c0.392-0.188,0.82-0.291,1.255-0.301c0.903,0.05,1.564,0.903,2.43,1.166
		c1.234,0.373,2.464-0.497,3.715-0.794c0.815-0.192,1.673-0.143,2.48-0.418c0.673-0.261,1.294-0.638,1.837-1.113
		c0.743-0.53,1.403-1.168,1.961-1.891c0.463-0.723,0.849-1.492,1.15-2.296c0.661-1.541,1.438-3.029,2.326-4.451
		c0.131-0.225,0.29-0.433,0.473-0.619c0.197-0.18,0.418-0.306,0.64-0.464c0.837-0.632,1.184-1.674,1.477-2.694
		c0.079-0.31,0.19-0.611,0.33-0.899c0.53-0.004,1.028,0.25,1.335,0.683C288.454,501.951,288.595,502.618,288.491,503.268z"/>
	<path fill="#33323D" d="M313.873,447.229v-5.195c-0.002-7.964-6.459-14.418-14.423-14.418H94.281
		c-7.964,0-14.42,6.454-14.423,14.418v9.579L313.873,447.229z"/>
	<path fill="#8DD070" d="M151.357,421.525c0,0-0.585,36.333,5.856,48.288c6.441,11.955,9.202,63.962,9.202,63.962
		s67.53,6.984,114.588-8.366c47.058-15.352,147.189-21.631,147.189-21.631l-16.874-113.729c0,0-83.362-5.346-130.785,17.271
		C233.113,429.937,151.357,421.525,151.357,421.525z"/>
	<path opacity="0.1" enable-background="new    " d="M151.357,421.525c0,0-0.585,36.333,5.856,48.288
		c6.441,11.955,9.202,63.962,9.202,63.962s67.53,6.984,114.588-8.366c47.058-15.352,147.189-21.631,147.189-21.631l-16.874-113.729
		c0,0-83.362-5.346-130.785,17.271C233.113,429.937,151.357,421.525,151.357,421.525z"/>
	<path fill="#8DD070" d="M166.303,434.797c0,0-2.112,29.979,3.188,39.559s5.546,52.341,5.546,52.341s60.774,2.819,104.005-11.896
		c43.231-14.717,134.076-24.262,134.076-24.262l-10.323-93.008c0,0-75.167-0.774-119.038,19.94
		C239.885,438.186,166.303,434.797,166.303,434.797z"/>
	
		<ellipse transform="matrix(-0.1236 -0.9923 0.9923 -0.1236 -147.2515 798.3353)" opacity="0.1" enable-background="new    " cx="278.906" cy="464.191" rx="33.84" ry="15.778"/>
	<path opacity="0.2" enable-background="new    " d="M365.616,334.645c0,0-80.986,20.496-119.176,56.574
		c-38.19,36.078-118.587,53.161-118.587,53.161s10.591,34.756,20.388,44.159c9.796,9.404,28.377,58.06,28.377,58.06
		s66.412-14.079,106.485-43.143s133.465-65.769,133.465-65.769L365.616,334.645z"/>
	<path fill="#8DD070" d="M126.636,439.177c0,0,10.587,34.76,20.375,44.163c9.788,9.404,28.377,58.056,28.377,58.056
		s66.421-14.076,106.498-43.139c40.077-29.063,133.46-65.756,133.46-65.756l-50.952-103.056c0,0-80.982,20.496-119.172,56.574
		C207.032,422.098,126.636,439.177,126.636,439.177z"/>
	<path opacity="0.1" enable-background="new    " d="M126.636,439.177c0,0,10.587,34.76,20.375,44.163
		c9.788,9.404,28.377,58.056,28.377,58.056s66.421-14.076,106.498-43.139c40.077-29.063,133.46-65.756,133.46-65.756
		l-50.952-103.056c0,0-80.982,20.496-119.172,56.574C207.032,422.098,126.636,439.177,126.636,439.177z"/>
	<path fill="#8DD070" d="M144.919,447.225c0,0,7.19,29.185,15.176,36.672S181.428,532,181.428,532s58.704-15.97,95.334-43.243
		c36.629-27.272,120.171-64.195,120.171-64.195l-38.362-85.382c0,0-71.775,22.324-107.175,55.503
		C215.996,427.862,144.919,447.225,144.919,447.225z"/>
	
		<ellipse transform="matrix(-0.4221 -0.9065 0.9065 -0.4221 -28.1085 863.3734)" opacity="0.1" enable-background="new    " cx="261.122" cy="440.646" rx="33.84" ry="15.778"/>
	<path opacity="0.1" enable-background="new    " d="M319.411,452.329V596.64c0,6.892-5.586,12.478-12.478,12.478
		c-0.001,0-0.003,0-0.004,0H92.344c-6.89-0.002-12.474-5.588-12.474-12.478V437.78c6.149,2.284,6.149,2.284,12.474,2.092h214.585
		C313.813,439.872,319.397,445.445,319.411,452.329z"/>
	<path fill="#504F60" d="M319.411,454.165v144.312c-0.002,6.893-5.59,12.478-12.482,12.478H92.344
		c-6.89-0.002-12.474-5.588-12.474-12.478V439.612c6.149,2.28,6.149,2.28,12.474,2.092h214.585
		C313.814,441.704,319.399,447.279,319.411,454.165z"/>
	<path opacity="0.1" enable-background="new    " d="M318.801,507.518v46.15h-44.758c-12.744-0.171-22.936-10.642-22.765-23.386
		c0.168-12.502,10.263-22.597,22.765-22.765H318.801z"/>
	<path fill="#33323D" d="M319.411,506.289v46.159h-44.757c-12.744-0.172-22.937-10.643-22.765-23.387
		c0.168-12.502,10.262-22.596,22.765-22.765L319.411,506.289z"/>
</g>
</svg>
